<svg version="1.2" xmlns="http://www.w3.org/2000/svg" viewBox="0 0 290 108" width="290" height="108">
	<title>New Project</title>
	<style>
		.s0 { fill: #333333 } 
		.s1 { fill: #fa5d79 } 
		.s2 { fill: #1b98fd } 
	</style>
	<path id="arr" fill-rule="evenodd" class="s0" d="m180.7 60.8v36.2h-20.4v-9.4q-4.1 5.8-9.2 8.4-5.1 2.6-12.4 2.6-9.9 0-16-5.7-6.1-5.8-6.1-14.9 0-11.2 7.6-16.4 7.7-5.2 24.1-5.2h12v-1.6q0-4.8-3.8-7-3.8-2.3-11.9-2.3-6.5 0-12.1 1.3-5.6 1.3-10.4 3.9v-15.4q6.5-1.6 13.1-2.4 6.6-0.9 13.1-0.9 17.2 0 24.8 6.8 7.6 6.8 7.6 22zm-20.4 7.7h-10.6q-6.3 0-9.5 2.1-3.2 2.2-3.2 6.3 0 3.9 2.6 6.1 2.6 2.2 7.1 2.2 5.8 0 9.7-4.1 3.9-4.2 3.9-10.3zm79.4-36l0.1 18.4q-2.7-1.3-5.4-1.9-2.6-0.6-5.2-0.6-7.9 0-12.1 5.1-4.2 5-4.2 14.3v29.2h-20.3v-63.4h20.3v10.4q3.9-6.2 9-9.1 5.1-2.8 12.1-2.8 1.1 0 2.2 0.1 1.2 0 3.5 0.3zm50.2 0l0.1 18.4q-2.7-1.3-5.3-1.9-2.6-0.6-5.3-0.6-7.8 0-12.1 5.1-4.1 5-4.1 14.3v29.2h-20.3v-63.4h20.3v10.4q3.9-6.2 8.9-9.1 5.1-2.8 12.2-2.8 1 0 2.2 0.1 1.2 0 3.4 0.3z"/>
	<path id="Color Fill 1" class="s1" d="m70 2c0-1.2 0.8-2 2-2h34c1.2 0 2 0.9 2 2v34c0 1.2-0.8 2-2 2h-29c-2 0-2.9 1.9-2.4 3l33.4 65c0.4 0.8 0.3 2-1 2h-34.1c-2.2 0-2.9-1.9-3.9-4l-32.6-69c-0.1-0.4-0.4-1 0.6-1h31c1.3 0 2-0.6 2-2z"/>
	<path id="Shape 1" fill-rule="evenodd" class="s2" d="m2 0h32c1.1 0 2 0.9 2 2v104c0 1.1-0.9 2-2 2h-32c-1.1 0-2-0.9-2-2v-104c0-1.1 0.9-2 2-2z"/>
</svg>