<svg version="1.2" xmlns="http://www.w3.org/2000/svg" viewBox="0 0 108 108" width="108" height="108">
	<title>logo</title>
	<style>
		.s0 { fill: #fa5d79 } 
		.s1 { fill: #1b98fd } 
	</style>
	<path id="Color Fill 1" class="s0" d="m70 2c0-1.2 0.8-2 2-2h34c1.2 0 2 0.9 2 2v34c0 1.2-0.8 2-2 2h-29c-2 0-2.9 1.9-2.4 3l33.4 65c0.4 0.8 0.3 2-1 2h-34.1c-2.2 0-2.9-1.9-3.9-4l-32.6-69c-0.1-0.4-0.4-1 0.6-1h31c1.3 0 2-0.6 2-2z"/>
	<path id="Shape 1" fill-rule="evenodd" class="s1" d="m2 0h32c1.1 0 2 0.9 2 2v104c0 1.1-0.9 2-2 2h-32c-1.1 0-2-0.9-2-2v-104c0-1.1 0.9-2 2-2z"/>
</svg>